<svg width="119" height="46" viewBox="0 0 119 46" fill="none" xmlns="http://www.w3.org/2000/svg">
<path d="M29.25 23C29.25 30.8701 22.8701 37.25 15 37.25C7.12994 37.25 0.75 30.8701 0.75 23C0.75 15.1299 7.12994 8.75 15 8.75C22.8701 8.75 29.25 15.1299 29.25 23Z" fill="black"/>
<path d="M29.25 23C29.25 30.8701 22.8701 37.25 15 37.25C7.12994 37.25 0.75 30.8701 0.75 23C0.75 15.1299 7.12994 8.75 15 8.75C22.8701 8.75 29.25 15.1299 29.25 23Z" stroke="white" stroke-width="1.5"/>
<path d="M29.25 23C29.25 30.8701 22.8701 37.25 15 37.25C7.12994 37.25 0.75 30.8701 0.75 23C0.75 15.1299 7.12994 8.75 15 8.75C22.8701 8.75 29.25 15.1299 29.25 23Z" stroke="black" stroke-width="1.5"/>
<path d="M29.25 23C29.25 30.8701 22.8701 37.25 15 37.25C7.12994 37.25 0.75 30.8701 0.75 23C0.75 15.1299 7.12994 8.75 15 8.75C22.8701 8.75 29.25 15.1299 29.25 23Z" fill="black"/>
<path d="M29.25 23C29.25 30.8701 22.8701 37.25 15 37.25C7.12994 37.25 0.75 30.8701 0.75 23C0.75 15.1299 7.12994 8.75 15 8.75C22.8701 8.75 29.25 15.1299 29.25 23Z" stroke="white" stroke-width="1.5"/>
<path d="M29.25 23C29.25 30.8701 22.8701 37.25 15 37.25C7.12994 37.25 0.75 30.8701 0.75 23C0.75 15.1299 7.12994 8.75 15 8.75C22.8701 8.75 29.25 15.1299 29.25 23Z" stroke="black" stroke-width="1.5"/>
<path d="M13.0731 19.1124C13.0731 19.3423 12.8873 19.5299 12.6582 19.5299C12.0801 19.5299 11.8729 18.9072 11.7059 18.4072C11.6626 18.278 11.5991 18.0877 11.5396 17.9598C11.48 18.0877 11.4166 18.278 11.3738 18.4072C11.2068 18.9072 10.9997 19.5299 10.421 19.5299C9.84223 19.5299 9.63508 18.9072 9.46807 18.4065C9.42535 18.2786 9.36191 18.0896 9.303 17.9598C9.2428 18.089 9.18065 18.278 9.13728 18.4072C8.97092 18.9072 8.76247 19.5299 8.18504 19.5299C7.60697 19.5299 7.39917 18.9072 7.23216 18.4072C7.18879 18.2767 7.12535 18.0877 7.0658 17.9598C7.00624 18.0877 6.94345 18.2767 6.90008 18.4072C6.73307 18.9072 6.52462 19.5299 5.9459 19.5299C5.36782 19.5299 5.1801 18.9007 4.99301 18.4072C4.79687 17.8935 4.3994 17.5474 4.59296 17.2838C4.83183 16.9591 5.33481 17.3532 5.63711 17.8812C5.80995 18.1831 5.88634 18.463 5.9459 18.5916C6.0061 18.4637 6.06954 18.2734 6.11356 18.1429C6.27993 17.6429 6.48772 17.0214 7.06644 17.0214C7.64516 17.0214 7.85231 17.6429 8.01933 18.1442C8.06205 18.2734 8.12549 18.4624 8.18504 18.591C8.2446 18.4617 8.3074 18.2741 8.35076 18.1442C8.51778 17.6435 8.72492 17.0214 9.303 17.0214C9.88043 17.0214 10.0882 17.6429 10.2552 18.1429C10.298 18.2734 10.3621 18.4611 10.421 18.5903C10.4805 18.4624 10.5433 18.2734 10.5867 18.1435C10.753 17.6429 10.9608 17.0208 11.5389 17.0208C12.1176 17.0208 12.3248 17.6422 12.4918 18.1435C12.5501 18.3189 12.6459 18.6052 12.7197 18.7013C12.9203 18.7319 13.0731 18.9046 13.0731 19.1124Z" fill="white"/>
<path fill-rule="evenodd" clip-rule="evenodd" d="M13.3261 29.7647V26.8202C13.0261 26.3492 12.5367 25.8376 11.7606 25.5947L11.7578 25.594C11.6947 25.5768 10.6113 25.2816 10.2435 25.4818C10.1478 25.5344 10.0882 25.6169 10.0767 25.7447C10.0767 25.9432 10.2423 26.036 10.341 26.0912L10.3442 26.093L10.3443 26.0931C10.4336 26.1435 10.5258 26.1956 10.6204 26.3438C10.7389 26.5263 10.7161 26.7052 10.5716 26.8011C10.4174 26.9047 10.3103 26.8929 10.2338 26.8717C9.65409 26.7114 9.02258 25.4225 8.76005 24.6471L8.72754 24.5523L8.62764 24.5017C8.59152 24.4827 7.72762 24.0553 6.93168 24.3837C6.35496 24.6219 5.99073 25.1776 5.85048 26.0345L5.82457 26.1886L13.1615 30.4719L13.3261 29.7647ZM6.45609 25.952C6.57891 25.3601 6.82278 24.9848 7.18217 24.8348C7.57646 24.6708 8.04003 24.8147 8.2363 24.8915C8.41089 25.373 9.08998 27.079 10.0544 27.3466C10.264 27.4038 10.5855 27.4249 10.9304 27.1955C11.2946 26.9516 11.3873 26.4985 11.1309 26.101C11.0936 26.0427 11.0538 25.9922 11.0153 25.9479C11.2055 25.9762 11.4115 26.0175 11.5602 26.0639C12.7203 26.4263 13.1068 27.6172 13.1742 27.8621L12.7618 29.6336L6.45609 25.952Z" fill="white"/>
<path fill-rule="evenodd" clip-rule="evenodd" d="M18.3002 30.5931V17.2069C18.3002 15.675 17.0579 14.4295 15.5309 14.4295C14.0038 14.4295 12.7615 15.675 12.7615 17.2069V30.5931C12.7615 32.1243 14.0038 33.3705 15.5309 33.3705C17.0579 33.3705 18.3002 32.1243 18.3002 30.5931ZM15.5309 32.7419C14.3488 32.7419 13.3882 31.7776 13.3882 30.5931V17.2069C13.3882 16.0218 14.3495 15.0582 15.5309 15.0582C16.7129 15.0582 17.6729 16.0225 17.6729 17.2069V30.5931C17.6729 31.7782 16.7129 32.7419 15.5309 32.7419Z" fill="white"/>
<path fill-rule="evenodd" clip-rule="evenodd" d="M18.72 28.2793L18.72 23.18C18.72 23.18 20.1706 23.9996 19.5144 25.5687C18.8581 27.1377 18.72 28.2793 18.72 28.2793Z" fill="white"/>
<path d="M18.24 17.0731V17.6257L25.723 21.6538C25.095 21.9996 23.4735 22.6921 21.7548 21.8209C20.8301 21.3518 19.5097 20.6967 18.24 20.0706V20.6063C19.3923 21.1752 20.5513 21.7511 21.3864 22.1748C23.9693 23.4853 26.4143 21.8154 26.4389 21.7983L26.6907 21.6227L18.24 17.0731Z" fill="white"/>
<path d="M15.5314 29.6743C15.9118 29.6743 16.221 29.9838 16.221 30.3666C16.221 30.7493 15.9118 31.0588 15.5314 31.0588C15.151 31.0588 14.8418 30.7493 14.8418 30.3666C14.8418 29.9838 15.151 29.6743 15.5314 29.6743Z" fill="white" stroke="white" stroke-width="0.3"/>
<path d="M15.5314 16.7411C15.9118 16.7411 16.221 17.0506 16.221 17.4334C16.221 17.8161 15.9118 18.1256 15.5314 18.1256C15.151 18.1256 14.8418 17.8161 14.8418 17.4334C14.8418 17.0506 15.151 16.7411 15.5314 16.7411Z" fill="white" stroke="white" stroke-width="0.3"/>
<path d="M16.6121 23.3064L16.191 22.8854L15.5581 23.5183L14.9266 22.8868L14.5046 23.3087L15.1362 23.9402L14.5033 24.5732L14.9243 24.9942L15.5572 24.3613L16.1887 24.9928L16.6107 24.5709L15.9791 23.9393L16.6121 23.3064Z" fill="white"/>
<path d="M54.9531 21.7031C54.9531 24.3073 54.3594 26.3958 53.1719 27.9688C51.9948 29.5312 50.401 30.3125 48.3906 30.3125C46.6823 30.3125 45.3021 29.7188 44.25 28.5312V36.5H39.7344V13.0938H43.9219L44.0781 14.75C45.1719 13.4375 46.599 12.7812 48.3594 12.7812C50.4427 12.7812 52.0625 13.5521 53.2188 15.0938C54.375 16.6354 54.9531 18.7604 54.9531 21.4688V21.7031ZM50.4375 21.375C50.4375 19.8021 50.1562 18.5885 49.5938 17.7344C49.0417 16.8802 48.2344 16.4531 47.1719 16.4531C45.7552 16.4531 44.7812 16.9948 44.25 18.0781V25C44.8021 26.1146 45.7865 26.6719 47.2031 26.6719C49.3594 26.6719 50.4375 24.9062 50.4375 21.375ZM66.6025 30C66.3942 29.5938 66.2431 29.0885 66.1494 28.4844C65.0556 29.7031 63.6338 30.3125 61.8838 30.3125C60.2275 30.3125 58.8525 29.8333 57.7588 28.875C56.6754 27.9167 56.1338 26.7083 56.1338 25.25C56.1338 23.4583 56.7952 22.0833 58.1181 21.125C59.4515 20.1667 61.3733 19.6823 63.8838 19.6719H65.9619V18.7031C65.9619 17.9219 65.7588 17.2969 65.3525 16.8281C64.9567 16.3594 64.3265 16.125 63.4619 16.125C62.7015 16.125 62.1025 16.3073 61.665 16.6719C61.2379 17.0365 61.0244 17.5365 61.0244 18.1719H56.5088C56.5088 17.1927 56.8108 16.2865 57.415 15.4531C58.0192 14.6198 58.8733 13.9688 59.9775 13.5C61.0817 13.0208 62.3213 12.7812 63.6963 12.7812C65.7796 12.7812 67.4306 13.3073 68.6494 14.3594C69.8785 15.401 70.4931 16.8698 70.4931 18.7656V26.0938C70.5035 27.6979 70.7275 28.9115 71.165 29.7344V30H66.6025ZM62.8681 26.8594C63.5348 26.8594 64.1494 26.7135 64.7119 26.4219C65.2744 26.1198 65.691 25.7188 65.9619 25.2188V22.3125H64.2744C62.014 22.3125 60.8108 23.0938 60.665 24.6562L60.6494 24.9219C60.6494 25.4844 60.8473 25.9479 61.2431 26.3125C61.639 26.6771 62.1806 26.8594 62.8681 26.8594ZM77.7675 30H73.2363V13.0938H77.7675V30ZM72.9706 8.71875C72.9706 8.04167 73.1946 7.48438 73.6425 7.04688C74.1008 6.60938 74.7206 6.39062 75.5019 6.39062C76.2727 6.39062 76.8873 6.60938 77.3456 7.04688C77.804 7.48438 78.0331 8.04167 78.0331 8.71875C78.0331 9.40625 77.7988 9.96875 77.33 10.4062C76.8717 10.8438 76.2623 11.0625 75.5019 11.0625C74.7415 11.0625 74.1269 10.8438 73.6581 10.4062C73.1998 9.96875 72.9706 9.40625 72.9706 8.71875ZM86.87 24.4844L90.0106 13.0938H94.7294L89.0262 30H84.7137L79.0106 13.0938H83.7294L86.87 24.4844ZM105.316 30C105.108 29.5938 104.957 29.0885 104.863 28.4844C103.769 29.7031 102.347 30.3125 100.597 30.3125C98.9412 30.3125 97.5662 29.8333 96.4725 28.875C95.3892 27.9167 94.8475 26.7083 94.8475 25.25C94.8475 23.4583 95.509 22.0833 96.8319 21.125C98.1652 20.1667 100.087 19.6823 102.597 19.6719H104.676V18.7031C104.676 17.9219 104.472 17.2969 104.066 16.8281C103.67 16.3594 103.04 16.125 102.176 16.125C101.415 16.125 100.816 16.3073 100.379 16.6719C99.9517 17.0365 99.7381 17.5365 99.7381 18.1719H95.2225C95.2225 17.1927 95.5246 16.2865 96.1287 15.4531C96.7329 14.6198 97.5871 13.9688 98.6912 13.5C99.7954 13.0208 101.035 12.7812 102.41 12.7812C104.493 12.7812 106.144 13.3073 107.363 14.3594C108.592 15.401 109.207 16.8698 109.207 18.7656V26.0938C109.217 27.6979 109.441 28.9115 109.879 29.7344V30H105.316ZM101.582 26.8594C102.249 26.8594 102.863 26.7135 103.426 26.4219C103.988 26.1198 104.405 25.7188 104.676 25.2188V22.3125H102.988C100.728 22.3125 99.5246 23.0938 99.3787 24.6562L99.3631 24.9219C99.3631 25.4844 99.561 25.9479 99.9569 26.3125C100.353 26.6771 100.894 26.8594 101.582 26.8594Z" fill="black"/>
</svg>
